<svg xmlns="http://www.w3.org/2000/svg" width="852" height="100"><line stroke="black" stroke-width="6" x1="0" y1="60" x2="852" y2="60"/><line stroke="black" stroke-width="2" x1="66" y1="32" x2="66" y2="60"/><text font-family="sans-serif" font-size="8" fill="#648FFF" transform="rotate(-45 66 20)" x="58" y="28">extEDVID</text><line stroke="black" stroke-width="2" x1="160" y1="32" x2="160" y2="60"/><text font-family="sans-serif" font-size="8" fill="#FE6100" transform="rotate(-45 160 20)" x="152" y="28">VG</text><line stroke="black" stroke-width="2" x1="189" y1="32" x2="189" y2="60"/><text font-family="sans-serif" font-size="8" fill="#FE6100" transform="rotate(-45 189 20)" x="181" y="28">P-loop</text><line stroke="black" stroke-width="2" x1="212" y1="32" x2="212" y2="60"/><text font-family="sans-serif" font-size="8" fill="#FE6100" transform="rotate(-45 212 20)" x="204" y="28">RNBS-A</text><line stroke="black" stroke-width="2" x1="260" y1="32" x2="260" y2="60"/><text font-family="sans-serif" font-size="8" fill="#FE6100" transform="rotate(-45 260 20)" x="252" y="28">Walker-B</text><line stroke="black" stroke-width="2" x1="291" y1="32" x2="291" y2="60"/><text font-family="sans-serif" font-size="8" fill="#FE6100" transform="rotate(-45 291 20)" x="283" y="28">RNBS-B</text><line stroke="black" stroke-width="2" x1="318" y1="32" x2="318" y2="60"/><text font-family="sans-serif" font-size="8" fill="#FE6100" transform="rotate(-45 318 20)" x="310" y="28">RNBS-C</text><line stroke="black" stroke-width="2" x1="357" y1="32" x2="357" y2="60"/><text font-family="sans-serif" font-size="8" fill="#FE6100" transform="rotate(-45 357 20)" x="349" y="28">GLPL</text><line stroke="black" stroke-width="2" x1="418" y1="32" x2="418" y2="60"/><text font-family="sans-serif" font-size="8" fill="#FE6100" transform="rotate(-45 418 20)" x="410" y="28">RNBS-D</text><line stroke="black" stroke-width="2" x1="487" y1="32" x2="487" y2="60"/><text font-family="sans-serif" font-size="8" fill="#FE6100" transform="rotate(-45 487 20)" x="479" y="28">MHD</text><line stroke="black" stroke-width="2" x1="512" y1="32" x2="512" y2="60"/><text font-family="sans-serif" font-size="8" fill="#FFB000" transform="rotate(-45 512 20)" x="504" y="28">LxxLxL</text><line stroke="black" stroke-width="2" x1="532" y1="32" x2="532" y2="60"/><text font-family="sans-serif" font-size="8" fill="#FFB000" transform="rotate(-45 532 20)" x="524" y="28">LxxLxL</text><line stroke="black" stroke-width="2" x1="561" y1="32" x2="561" y2="60"/><text font-family="sans-serif" font-size="8" fill="#FFB000" transform="rotate(-45 561 20)" x="553" y="28">LxxLxL</text><line stroke="black" stroke-width="2" x1="588" y1="32" x2="588" y2="60"/><text font-family="sans-serif" font-size="8" fill="#FFB000" transform="rotate(-45 588 20)" x="580" y="28">LxxLxL</text><line stroke="black" stroke-width="2" x1="612" y1="32" x2="612" y2="60"/><text font-family="sans-serif" font-size="8" fill="#FFB000" transform="rotate(-45 612 20)" x="604" y="28">LxxLxL</text><line stroke="black" stroke-width="2" x1="636" y1="32" x2="636" y2="60"/><text font-family="sans-serif" font-size="8" fill="#FFB000" transform="rotate(-45 636 20)" x="628" y="28">LxxLxL</text><line stroke="black" stroke-width="2" x1="660" y1="32" x2="660" y2="60"/><text font-family="sans-serif" font-size="8" fill="#FFB000" transform="rotate(-45 660 20)" x="652" y="28">LxxLxL</text><line stroke="black" stroke-width="2" x1="686" y1="32" x2="686" y2="60"/><text font-family="sans-serif" font-size="8" fill="#FFB000" transform="rotate(-45 686 20)" x="678" y="28">LxxLxL</text><line stroke="black" stroke-width="2" x1="713" y1="32" x2="713" y2="60"/><text font-family="sans-serif" font-size="8" fill="#FFB000" transform="rotate(-45 713 20)" x="705" y="28">LxxLxL</text><line stroke="black" stroke-width="2" x1="741" y1="32" x2="741" y2="60"/><text font-family="sans-serif" font-size="8" fill="#FFB000" transform="rotate(-45 741 20)" x="733" y="28">LxxLxL</text><line stroke="black" stroke-width="2" x1="766" y1="32" x2="766" y2="60"/><text font-family="sans-serif" font-size="8" fill="#FFB000" transform="rotate(-45 766 20)" x="758" y="28">LxxLxL</text><line stroke="black" stroke-width="2" x1="793" y1="32" x2="793" y2="60"/><text font-family="sans-serif" font-size="8" fill="#FFB000" transform="rotate(-45 793 20)" x="785" y="28">LxxLxL</text><line stroke="black" stroke-width="2" x1="818" y1="32" x2="818" y2="60"/><text font-family="sans-serif" font-size="8" fill="#FFB000" transform="rotate(-45 818 20)" x="810" y="28">LxxLxL</text><rect stroke="black" stroke-width="2" x="5" y="45" width="124" height="30" fill="#648FFF"/><text dominant-baseline="middle" text-anchor="middle" font-family="sans-serif" font-size="14" x="66.5" y="60">CC</text><rect stroke="black" stroke-width="2" x="163" y="45" width="175" height="30" fill="#FE6100"/><text dominant-baseline="middle" text-anchor="middle" font-family="sans-serif" font-size="14" x="250.0" y="60">NBARC</text><rect stroke="black" stroke-width="2" x="512" y="45" width="306" height="30" fill="#FFB000"/><text dominant-baseline="middle" text-anchor="middle" font-family="sans-serif" font-size="14" x="664.5" y="60">LRR</text></svg>
